<svg width="800" height="600" xmlns="http://www.w3.org/2000/svg">
<rect width="100%" height="100%" fill="white"/>
<line x1="60" y1="540" x2="740" y2="540" stroke="black" stroke-width="2"/>
<line x1="60" y1="540" x2="60" y2="60" stroke="black" stroke-width="2"/>
<polyline points="60.0,227.0400000000002 173.33333333333312,225.60000000000014 286.6666666666666,186.24000000000046 400.0,255.83999999999992 513.3333333333331,228.0 626.6666666666665,198.23999999999978 740.0,267.8399999999999" fill="none" stroke="#2c3e50" stroke-width="3"/>
<circle cx="60.0" cy="227.0400000000002" r="5" fill="#e74c3c"/>
<text x="60.0" y="217.0400000000002" text-anchor="middle" font-size="12">91.52%</text>
<text x="60.0" y="560" text-anchor="middle">0.2</text>
<circle cx="173.33333333333312" cy="225.60000000000014" r="5" fill="#e74c3c"/>
<text x="173.33333333333312" y="215.60000000000014" text-anchor="middle" font-size="12">91.55%</text>
<text x="173.33333333333312" y="560" text-anchor="middle">0.21</text>
<circle cx="286.6666666666666" cy="186.24000000000046" r="5" fill="#e74c3c"/>
<text x="286.6666666666666" y="176.24000000000046" text-anchor="middle" font-size="12">92.37%</text>
<text x="286.6666666666666" y="560" text-anchor="middle">0.22</text>
<circle cx="400.0" cy="255.83999999999992" r="5" fill="#e74c3c"/>
<text x="400.0" y="245.83999999999992" text-anchor="middle" font-size="12">90.92%</text>
<text x="400.0" y="560" text-anchor="middle">0.23</text>
<circle cx="513.3333333333331" cy="228.0" r="5" fill="#e74c3c"/>
<text x="513.3333333333331" y="218.0" text-anchor="middle" font-size="12">91.50%</text>
<text x="513.3333333333331" y="560" text-anchor="middle">0.24</text>
<circle cx="626.6666666666665" cy="198.23999999999978" r="5" fill="#e74c3c"/>
<text x="626.6666666666665" y="188.23999999999978" text-anchor="middle" font-size="12">92.12%</text>
<text x="626.6666666666665" y="560" text-anchor="middle">0.25</text>
<circle cx="740.0" cy="267.8399999999999" r="5" fill="#e74c3c"/>
<text x="740.0" y="257.8399999999999" text-anchor="middle" font-size="12">90.67%</text>
<text x="740.0" y="560" text-anchor="middle">0.26</text>
<text x="400.0" y="585" text-anchor="middle">Beta Value</text>
<text x="20" y="300.0" text-anchor="middle" transform="rotate(-90 20,300.0)">Accuracy (%)</text>
<text x="400.0" y="30" text-anchor="middle" font-size="20" font-weight="bold">Beta Stability Sweep</text>
</svg>